<svg xmlns="http://www.w3.org/2000/svg" xmlns:xlink="http://www.w3.org/1999/xlink" viewBox="0 0 368 368">
    <defs>
        <style>
            .cls-1 {
                fill: url(#radial-gradient);
            }

            .cls-2 {
                fill: #ff171d;
            }

            .cls-3 {
                fill: #f4edee;
            }

            .cls-4 {
                fill: url(#radial-gradient-2);
            }

            .cls-5 {
                fill: url(#radial-gradient-3);
            }

            .cls-6 {
                fill: url(#radial-gradient-4);
            }

            .cls-7 {
                fill: url(#radial-gradient-5);
            }

            .cls-8 {
                fill: url(#radial-gradient-6);
            }

            .cls-9 {
                fill: url(#radial-gradient-7);
            }
        </style>
        <radialGradient id="radial-gradient" cx="182.02" cy="184" r="423.2" gradientUnits="userSpaceOnUse">
            <stop offset="0" stop-color="#fff" />
            <stop offset="0.12" stop-color="#fbfbfb" />
            <stop offset="0.25" stop-color="#efefef" />
            <stop offset="0.37" stop-color="#dadada" />
            <stop offset="0.5" stop-color="#bdbdbd" />
            <stop offset="0.63" stop-color="#989898" />
            <stop offset="0.76" stop-color="#6b6b6b" />
            <stop offset="0.89" stop-color="#363636" />
            <stop offset="1" />
        </radialGradient>
        <radialGradient id="radial-gradient-2" cx="201.48" cy="98.14" r="37.45" gradientUnits="userSpaceOnUse">
            <stop offset="0" stop-color="#ff3" />
            <stop offset="1" stop-color="#d68f00" />
        </radialGradient>
        <radialGradient id="radial-gradient-3" cx="255.73" cy="102.95" r="22.23" xlink:href="#radial-gradient-2" />
        <radialGradient id="radial-gradient-4" cx="130.34" cy="249.13" r="24.86" xlink:href="#radial-gradient-2" />
        <radialGradient id="radial-gradient-5" cx="183.39" cy="255.42" r="27.92" xlink:href="#radial-gradient-2" />
        <radialGradient id="radial-gradient-6" cx="198.43" cy="294.98" r="10.36" xlink:href="#radial-gradient-2" />
        <radialGradient id="radial-gradient-7" cx="222.43" cy="253.98" r="10.36" xlink:href="#radial-gradient-2" />
    </defs>
    <title>Asset 1</title>
    <g id="Layer_2" data-name="Layer 2">
        <g id="Layer_1-2" data-name="Layer 1">
            <circle class="cls-1" cx="184" cy="184" r="184" />
            <path class="cls-2"
                d="M184,0c-14.28,0-21.74,6.07-25.54,15.72a6.52,6.52,0,0,1,3.71-1.78A6.35,6.35,0,0,1,167,15.27a6.51,6.51,0,0,1,2.32,4.49,6.78,6.78,0,0,1-1.42,4.78,6,6,0,0,1-8.72,1.16,6.72,6.72,0,0,1-2.52-4.14C149.89,51,165.4,103.11,142,130c-18.94,21.76-76.75,17.75-112.5,26.92a7,7,0,0,1,1.73,5.38A6.59,6.59,0,0,1,24.12,168a6.43,6.43,0,0,1-5.57-7.44v0C7.26,165.19,0,172.34,0,184A184,184,0,1,0,184,0ZM19,176a6.07,6.07,0,0,1,4.63-1.71,6.49,6.49,0,0,1,4.41,2.15A6.39,6.39,0,0,1,29.82,181a6.64,6.64,0,0,1-6.39,6.46,6.36,6.36,0,0,1-6.4-6.71A6.85,6.85,0,0,1,19,176Zm-1.25,25.06a6.4,6.4,0,1,1,12.73-1.29A6.59,6.59,0,0,1,24.92,207,6.4,6.4,0,0,1,17.77,201.08Zm3.12,20.07a7.05,7.05,0,0,1-.08-2.7,6.85,6.85,0,0,1,1-2.4,6.22,6.22,0,0,1,4.12-2.78,6.35,6.35,0,0,1,4.77,1A6.29,6.29,0,0,1,32.36,216a6.57,6.57,0,0,1,1,2.3,6.76,6.76,0,0,1-4.77,7.83A6.27,6.27,0,0,1,20.89,221.15Zm8.75,23.43a6.24,6.24,0,0,1-3.36-3.86,6.42,6.42,0,1,1,12.08-4.35,6.74,6.74,0,0,1,.3,2.51,6.57,6.57,0,0,1-.56,2.38,6.64,6.64,0,0,1-3.54,3.45A6.06,6.06,0,0,1,29.64,244.58Zm4.24,14.9a6.61,6.61,0,0,1,3.06-8.88,6.4,6.4,0,0,1,8.43,3.09,6.76,6.76,0,0,1-2.83,8.76A6.24,6.24,0,0,1,33.88,259.48Zm18.69,19.57a6.17,6.17,0,0,1-9-1.88,7,7,0,0,1-.93-5.09A6.48,6.48,0,0,1,45.62,268a6.34,6.34,0,0,1,4.8-.75A6.21,6.21,0,0,1,54.37,270,6.88,6.88,0,0,1,52.57,279.05Zm11.82,15.3a6.22,6.22,0,0,1-9.11-.78,6.68,6.68,0,0,1,.95-9.37,6.32,6.32,0,0,1,8.9,1A6.79,6.79,0,0,1,64.39,294.35Zm13.52,13.72a6.14,6.14,0,0,1-9.13.33,6.65,6.65,0,0,1-2.06-4.72A6.56,6.56,0,0,1,68.64,299a6.34,6.34,0,0,1,4.5-1.89,6.23,6.23,0,0,1,4.46,1.74A6.9,6.9,0,0,1,77.91,308.07Zm15,12a6.25,6.25,0,0,1-9.05,1.45,6.68,6.68,0,0,1-1.19-9.34A6.3,6.3,0,0,1,91.49,311,6.75,6.75,0,0,1,92.87,320.1Zm16.25,10.1a6.13,6.13,0,0,1-8.79,2.51,6.56,6.56,0,0,1-2.28-9.11,6.27,6.27,0,0,1,11.56,1.62A6.8,6.8,0,0,1,109.12,330.2Zm17.3,8.05a6.28,6.28,0,0,1-8.46,3.6,6.61,6.61,0,0,1-3.31-8.77,6.4,6.4,0,0,1,8.36-3.34A6.73,6.73,0,0,1,126.42,338.25Zm18.1,5.89a6.24,6.24,0,0,1-8,4.57,6.7,6.7,0,0,1-2.34-1.22,6.92,6.92,0,0,1-1.58-2,6.63,6.63,0,0,1-.38-5.05,6.71,6.71,0,0,1,3.18-3.81,6.11,6.11,0,0,1,2.28-.7,5.85,5.85,0,0,1,2.45.18A6.77,6.77,0,0,1,144.52,344.14Zm18.66,3.58a6.42,6.42,0,0,1-2.48,4.37,6.59,6.59,0,0,1-2.28,1.13,6.55,6.55,0,0,1-7.86-7.65,6.56,6.56,0,0,1,7.35-5.3,6.05,6.05,0,0,1,2.28.94,6.25,6.25,0,0,1,1.75,1.65A6.89,6.89,0,0,1,163.18,347.72ZM348.1,157a6.41,6.41,0,1,1-12.64,2.06,6.65,6.65,0,0,1,5.2-7.52A6.36,6.36,0,0,1,348.1,157ZM350,177.24a6.42,6.42,0,0,1-6.23,6.85,6.6,6.6,0,0,1-6.56-6.33,7,7,0,0,1,1.63-4.6,6.54,6.54,0,0,1,4.37-2.24,6.12,6.12,0,0,1,4.66,1.61A6.51,6.51,0,0,1,350,177.24Zm-6.19-40.08a6.72,6.72,0,0,1-.57,5.14,6.3,6.3,0,0,1-4,3,6.37,6.37,0,0,1-4.81-.74,6.54,6.54,0,0,1-3-3.83,6.73,6.73,0,0,1,.57-4.88,6.59,6.59,0,0,1,3.72-3.23,6.16,6.16,0,0,1,4.91.43A6.59,6.59,0,0,1,343.83,137.16ZM337.34,118a6.6,6.6,0,0,1-3.55,8.67,6.39,6.39,0,0,1-8.25-3.59,6.73,6.73,0,0,1,3.29-8.56A6.29,6.29,0,0,1,337.34,118ZM324.68,96.5a6.64,6.64,0,0,1,3.95,3.2,7,7,0,0,1,.85,2.56,6.62,6.62,0,0,1-.24,2.59,6.36,6.36,0,0,1-8,4.36,6.63,6.63,0,0,1-2.11-1.13,6.26,6.26,0,0,1-1.64-1.89,6.52,6.52,0,0,1-.56-4.87,6.74,6.74,0,0,1,2.88-4A6.09,6.09,0,0,1,324.68,96.5ZM313.59,80a6.27,6.27,0,0,1,4.33,2.66,6.62,6.62,0,0,1-1.45,9.28,6.38,6.38,0,0,1-8.86-1.47,6.81,6.81,0,0,1,1.25-9.13A6,6,0,0,1,313.59,80Zm-17.4-13.21a6.14,6.14,0,0,1,9.12.24,6.67,6.67,0,0,1,1.41,2.28,7.16,7.16,0,0,1,.35,2.58A6.48,6.48,0,0,1,300.29,78a5.93,5.93,0,0,1-2.31-.59A6.44,6.44,0,0,1,296,76,6.88,6.88,0,0,1,296.19,66.75ZM281.91,53.87A6.2,6.2,0,0,1,291,53a6.6,6.6,0,0,1,.68,9.37,6.38,6.38,0,0,1-8.94.7,6.82,6.82,0,0,1-.85-9.17ZM266.29,42.75a6.19,6.19,0,0,1,8.92-2A6.62,6.62,0,0,1,277,50a6.55,6.55,0,0,1-4.12,2.7,6.33,6.33,0,0,1-4.66-1A6.84,6.84,0,0,1,266.29,42.75ZM175.41,355.47a6.59,6.59,0,1,1,6.71-6.41A6.49,6.49,0,0,1,175.41,355.47ZM182,25.71a6.59,6.59,0,0,1-6.46-6.43,6.41,6.41,0,0,1,6.33-6.75,6.14,6.14,0,0,1,4.67,2,6.46,6.46,0,0,1,1.79,4.71,6.81,6.81,0,0,1-1.95,4.61A6.51,6.51,0,0,1,182,25.71Zm17.67,327.23a6.5,6.5,0,0,1-4.51,2.29,6.09,6.09,0,0,1-4.77-1.65,6.52,6.52,0,0,1-2.06-4.61,6.85,6.85,0,0,1,1.69-4.7,6.56,6.56,0,0,1,4.26-2.19,6.07,6.07,0,0,1,4.52,1.58,6.94,6.94,0,0,1,2.3,4.44A6.46,6.46,0,0,1,199.65,352.94ZM200.2,26.6a6.61,6.61,0,0,1-5.7-7.1,6.4,6.4,0,0,1,7.06-6,6.59,6.59,0,0,1-1.36,13.1Zm18.73,323.2a6.77,6.77,0,0,1-1.76,1.86,6.46,6.46,0,0,1-2.45,1,6.29,6.29,0,0,1-7.49-5.36,6.72,6.72,0,0,1,5.11-7.59,5.93,5.93,0,0,1,2.45.07,6,6,0,0,1,2.21.92,6.78,6.78,0,0,1,2.79,4.12A6.6,6.6,0,0,1,218.93,349.8Zm3.93-320.91a6.15,6.15,0,0,1-4.7.85,6.44,6.44,0,0,1-3.87-2.87,6.86,6.86,0,0,1-1-4.91,6.53,6.53,0,0,1,2.74-4.23,6.21,6.21,0,0,1,5-.84,6.48,6.48,0,0,1,4.11,3,6.71,6.71,0,0,1-2.28,9Zm11,318.82a6.32,6.32,0,0,1-8.07-4.45,6.69,6.69,0,0,1,4.21-8.12,6.42,6.42,0,0,1,8,4.17A6.57,6.57,0,0,1,233.87,347.71ZM235.65,35a6.73,6.73,0,0,1-3.9-8.32A6.3,6.3,0,0,1,240,22.59a6.59,6.59,0,0,1,3.8,8.58A6.41,6.41,0,0,1,235.65,35Zm20.1,301.63a6.45,6.45,0,0,1-3.45,3.77,6.25,6.25,0,0,1-5,.19,6.4,6.4,0,0,1-3.5-3.59,6.9,6.9,0,0,1,0-5,6.49,6.49,0,0,1,3.24-3.61,6.31,6.31,0,0,1,4.77-.14,6.54,6.54,0,0,1,3.65,3.31A6.63,6.63,0,0,1,255.75,336.63ZM252.38,42.41a6,6,0,0,1-1.9-1.59,6.25,6.25,0,0,1-1.21-2.11,7,7,0,0,1,.2-5,6.34,6.34,0,0,1,3.62-3.43,5.93,5.93,0,0,1,5,.37,6.73,6.73,0,0,1,3.3,3.91,6.49,6.49,0,0,1-.5,5,6.67,6.67,0,0,1-3.78,3.18A6,6,0,0,1,252.38,42.41ZM269.78,331a6.26,6.26,0,0,1-8.86-2.35,6.74,6.74,0,0,1,2.23-8.92,6.32,6.32,0,0,1,8.71,2.09A6.66,6.66,0,0,1,269.78,331Zm18.73-16.07a6.79,6.79,0,0,1-2.5,4.49,6.15,6.15,0,0,1-9.06-1.24,6.89,6.89,0,0,1,1.18-9.15,6.11,6.11,0,0,1,4.61-1.28A6.43,6.43,0,0,1,287,310,6.64,6.64,0,0,1,288.51,314.88ZM300.84,306a6.22,6.22,0,0,1-9.14-.13,6.81,6.81,0,0,1,.13-9.23,6.33,6.33,0,0,1,8.95-.06A6.67,6.67,0,0,1,300.84,306ZM314,290.81a6.16,6.16,0,0,1-9.09,1,6.83,6.83,0,0,1-2.23-4.46A7,7,0,0,1,304,282.6a6.1,6.1,0,0,1,4.18-2.35,6.38,6.38,0,0,1,4.72,1.23,6.46,6.46,0,0,1,2.52,4.36A6.93,6.93,0,0,1,314,290.81Zm11.37-16.62a6.2,6.2,0,0,1-8.89,2.08,6.79,6.79,0,0,1-2-9,6.35,6.35,0,0,1,8.68-2.21,6.32,6.32,0,0,1,3,4A6.65,6.65,0,0,1,325.36,274.19Zm9.36-17.9a6.58,6.58,0,0,1-1.53,2.2,6.73,6.73,0,0,1-2.19,1.3,6.06,6.06,0,0,1-4.9-.36,6.69,6.69,0,0,1-3.53-6.23,6.64,6.64,0,0,1,.54-2.46,6.46,6.46,0,0,1,8.4-3.25A6.54,6.54,0,0,1,334.72,256.29ZM342,237.37a6.23,6.23,0,0,1-8.16,4.18,6.78,6.78,0,0,1-4-8.27A6.42,6.42,0,0,1,331,231.1a6.21,6.21,0,0,1,1.84-1.55,6.4,6.4,0,0,1,4.86-.53,6.21,6.21,0,0,1,3.82,3.17,6.45,6.45,0,0,1,.4,5.18Zm5-19.67a6.35,6.35,0,0,1-7.67,5.15,6.67,6.67,0,0,1-4.88-7.72A6.41,6.41,0,1,1,347,217.7Zm2.66-20.15a6.65,6.65,0,0,1-2.26,4.63,6.14,6.14,0,0,1-4.74,1.42,6.4,6.4,0,0,1-4.26-2.41,6.78,6.78,0,0,1-1.5-4.66,6.48,6.48,0,0,1,2.19-4.36,6.36,6.36,0,0,1,4.57-1.7,6.21,6.21,0,0,1,4.47,2.16A6.83,6.83,0,0,1,349.63,197.55Z" />
            <path class="cls-3"
                d="M343.63,190.47a6.36,6.36,0,0,0-4.57,1.7,6.48,6.48,0,0,0-2.19,4.36,6.78,6.78,0,0,0,1.5,4.66,6.4,6.4,0,0,0,4.26,2.41,6.14,6.14,0,0,0,4.74-1.42,6.65,6.65,0,0,0,2.26-4.63,6.83,6.83,0,0,0-1.53-4.92A6.21,6.21,0,0,0,343.63,190.47Z" />
            <path class="cls-3"
                d="M341.82,209.93a6.48,6.48,0,0,0-7.4,5.2,6.67,6.67,0,0,0,4.88,7.72A6.35,6.35,0,0,0,347,217.7,6.52,6.52,0,0,0,341.82,209.93Z" />
            <path class="cls-3"
                d="M341.55,232.19a6.21,6.21,0,0,0-3.82-3.17,6.4,6.4,0,0,0-4.86.53A6.21,6.21,0,0,0,331,231.1a6.42,6.42,0,0,0-1.24,2.18,6.78,6.78,0,0,0,4,8.27,6.23,6.23,0,0,0,8.16-4.18,6.45,6.45,0,0,0-.4-5.18Z" />
            <path class="cls-3"
                d="M331.51,247.49a6.46,6.46,0,0,0-8.4,3.25,7.12,7.12,0,0,0-.21,4.89,6.77,6.77,0,0,0,3.2,3.8,6.06,6.06,0,0,0,4.9.36,6.73,6.73,0,0,0,2.19-1.3,6.8,6.8,0,0,0-1.68-11Z" />
            <path class="cls-3"
                d="M323.16,265.05a6.35,6.35,0,0,0-8.68,2.21,6.79,6.79,0,0,0,2,9,6.2,6.2,0,0,0,8.89-2.08,6.65,6.65,0,0,0,.78-5.13A6.32,6.32,0,0,0,323.16,265.05Z" />
            <path class="cls-3"
                d="M312.88,281.48a6.38,6.38,0,0,0-4.72-1.23A6.1,6.1,0,0,0,304,282.6a7,7,0,0,0-1.31,4.72,6.83,6.83,0,0,0,2.23,4.46,6.16,6.16,0,0,0,9.09-1,6.93,6.93,0,0,0,1.41-5A6.46,6.46,0,0,0,312.88,281.48Z" />
            <path class="cls-3"
                d="M291.83,296.6a6.81,6.81,0,0,0-.13,9.23,6.22,6.22,0,0,0,9.14.13,6.67,6.67,0,0,0-.06-9.42A6.33,6.33,0,0,0,291.83,296.6Z" />
            <path class="cls-3"
                d="M282.74,307.7a6.11,6.11,0,0,0-4.61,1.28,6.89,6.89,0,0,0-1.18,9.15,6.15,6.15,0,0,0,9.06,1.24,6.79,6.79,0,0,0,2.5-4.49A6.64,6.64,0,0,0,287,310,6.43,6.43,0,0,0,282.74,307.7Z" />
            <path class="cls-3"
                d="M263.15,319.68a6.74,6.74,0,0,0-2.23,8.92,6.26,6.26,0,0,0,8.86,2.35,6.66,6.66,0,0,0,2.08-9.18A6.32,6.32,0,0,0,263.15,319.68Z" />
            <path class="cls-3"
                d="M251.78,328.25a6.31,6.31,0,0,0-4.77.14,6.49,6.49,0,0,0-3.24,3.61,6.9,6.9,0,0,0,0,5,6.4,6.4,0,0,0,3.5,3.59,6.25,6.25,0,0,0,5-.19,6.45,6.45,0,0,0,3.45-3.77,6.63,6.63,0,0,0-.32-5.07A6.54,6.54,0,0,0,251.78,328.25Z" />
            <path class="cls-3"
                d="M230,335.14a6.69,6.69,0,0,0-4.21,8.12,6.32,6.32,0,0,0,8.07,4.45,6.57,6.57,0,0,0,4.13-8.4A6.42,6.42,0,0,0,230,335.14Z" />
            <path class="cls-3"
                d="M217,340.69a6,6,0,0,0-2.21-.92,5.93,5.93,0,0,0-2.45-.07,6.72,6.72,0,0,0-5.11,7.59,6.29,6.29,0,0,0,7.49,5.36,6.46,6.46,0,0,0,2.45-1,6.77,6.77,0,0,0,1.76-1.86,6.6,6.6,0,0,0,.86-5A6.78,6.78,0,0,0,217,340.69Z" />
            <path class="cls-3"
                d="M198.78,343.66a6.07,6.07,0,0,0-4.52-1.58,6.56,6.56,0,0,0-4.26,2.19,6.85,6.85,0,0,0-1.69,4.7,6.52,6.52,0,0,0,2.06,4.61,6.09,6.09,0,0,0,4.77,1.65,6.38,6.38,0,0,0,5.94-7.13A6.94,6.94,0,0,0,198.78,343.66Z" />
            <path class="cls-3" d="M176,342.31a6.59,6.59,0,1,0,6.09,6.75A6.5,6.5,0,0,0,176,342.31Z" />
            <path class="cls-3"
                d="M160.19,341.21a6.05,6.05,0,0,0-2.28-.94,6.56,6.56,0,0,0-7.35,5.3,6.55,6.55,0,0,0,7.86,7.65,6.59,6.59,0,0,0,2.28-1.13,6.42,6.42,0,0,0,2.48-4.37,6.89,6.89,0,0,0-1.24-4.86A6.25,6.25,0,0,0,160.19,341.21Z" />
            <path class="cls-3"
                d="M140.16,336.07a5.85,5.85,0,0,0-2.45-.18,6.11,6.11,0,0,0-2.28.7,6.71,6.71,0,0,0-3.18,3.81,6.63,6.63,0,0,0,.38,5.05,6.92,6.92,0,0,0,1.58,2,6.7,6.7,0,0,0,2.34,1.22,6.24,6.24,0,0,0,8-4.57A6.77,6.77,0,0,0,140.16,336.07Z" />
            <path class="cls-3"
                d="M123,329.74a6.4,6.4,0,0,0-8.36,3.34,6.61,6.61,0,0,0,3.31,8.77,6.28,6.28,0,0,0,8.46-3.6A6.73,6.73,0,0,0,123,329.74Z" />
            <path class="cls-3"
                d="M106.73,321.3a6.45,6.45,0,0,0-8.68,2.3,6.56,6.56,0,0,0,2.28,9.11,6.13,6.13,0,0,0,8.79-2.51,6.8,6.8,0,0,0,.49-5A6.48,6.48,0,0,0,106.73,321.3Z" />
            <path class="cls-3"
                d="M91.49,311a6.3,6.3,0,0,0-8.86,1.21,6.68,6.68,0,0,0,1.19,9.34,6.25,6.25,0,0,0,9.05-1.45A6.75,6.75,0,0,0,91.49,311Z" />
            <path class="cls-3"
                d="M73.14,297.11a6.34,6.34,0,0,0-4.5,1.89,6.56,6.56,0,0,0-1.92,4.68,6.65,6.65,0,0,0,2.06,4.72,6.14,6.14,0,0,0,9.13-.33,6.9,6.9,0,0,0-.31-9.22A6.23,6.23,0,0,0,73.14,297.11Z" />
            <path class="cls-3"
                d="M56.23,284.2a6.68,6.68,0,0,0-.95,9.37,6.22,6.22,0,0,0,9.11.78,6.79,6.79,0,0,0,.74-9.19A6.32,6.32,0,0,0,56.23,284.2Z" />
            <path class="cls-3"
                d="M54.37,270a6.21,6.21,0,0,0-3.95-2.77,6.34,6.34,0,0,0-4.8.75,6.48,6.48,0,0,0-2.93,4.09,7,7,0,0,0,.93,5.09,6.17,6.17,0,0,0,9,1.88A6.88,6.88,0,0,0,54.37,270Z" />
            <path class="cls-3"
                d="M45.37,253.69a6.4,6.4,0,0,0-8.43-3.09,6.61,6.61,0,0,0-3.06,8.88,6.24,6.24,0,0,0,8.66,3A6.76,6.76,0,0,0,45.37,253.69Z" />
            <path class="cls-3"
                d="M38.1,241.26a6.57,6.57,0,0,0,.56-2.38,6.74,6.74,0,0,0-.3-2.51,6.42,6.42,0,1,0-12.08,4.35,6.24,6.24,0,0,0,3.36,3.86,6.06,6.06,0,0,0,4.92.13A6.64,6.64,0,0,0,38.1,241.26Z" />
            <path class="cls-3"
                d="M28.62,226.15a6.76,6.76,0,0,0,4.77-7.83,6.57,6.57,0,0,0-1-2.3,6.29,6.29,0,0,0-1.69-1.72,6.35,6.35,0,0,0-4.77-1,6.22,6.22,0,0,0-4.12,2.78,6.85,6.85,0,0,0-1,2.4,7.05,7.05,0,0,0,.08,2.7A6.27,6.27,0,0,0,28.62,226.15Z" />
            <path class="cls-3"
                d="M24.92,207a6.59,6.59,0,0,0,5.58-7.18,6.4,6.4,0,1,0-12.73,1.29A6.4,6.4,0,0,0,24.92,207Z" />
            <path class="cls-3"
                d="M23.43,187.48A6.64,6.64,0,0,0,29.82,181a6.39,6.39,0,0,0-1.76-4.56,6.49,6.49,0,0,0-4.41-2.15A6.07,6.07,0,0,0,19,176a6.85,6.85,0,0,0-2,4.75A6.36,6.36,0,0,0,23.43,187.48Z" />
            <path class="cls-3"
                d="M24.12,168a6.59,6.59,0,0,0,7.11-5.65,6.58,6.58,0,0,0-1.73-5.38,79.32,79.32,0,0,0-10.94,3.57v0A6.43,6.43,0,0,0,24.12,168Z" />
            <path class="cls-3"
                d="M159.2,25.7a6,6,0,0,0,8.72-1.16,6.78,6.78,0,0,0,1.42-4.78A6.51,6.51,0,0,0,167,15.27a6.35,6.35,0,0,0-4.85-1.33,6.52,6.52,0,0,0-3.71,1.78,42.88,42.88,0,0,0-1.78,5.84A6.72,6.72,0,0,0,159.2,25.7Z" />
            <path class="cls-3"
                d="M186.52,14.49a6.14,6.14,0,0,0-4.67-2,6.41,6.41,0,0,0-6.33,6.75A6.59,6.59,0,0,0,182,25.71a6.51,6.51,0,0,0,4.38-1.9,6.81,6.81,0,0,0,1.95-4.61A6.46,6.46,0,0,0,186.52,14.49Z" />
            <path class="cls-3"
                d="M201.56,13.5a6.4,6.4,0,0,0-7.06,6,6.61,6.61,0,0,0,5.7,7.1,6.59,6.59,0,0,0,1.36-13.1Z" />
            <path class="cls-3"
                d="M225.14,19.87a6.48,6.48,0,0,0-4.11-3,6.21,6.21,0,0,0-5,.84A6.53,6.53,0,0,0,213.33,22a6.86,6.86,0,0,0,1,4.91,6.44,6.44,0,0,0,3.87,2.87,6.15,6.15,0,0,0,4.7-.85,6.71,6.71,0,0,0,2.28-9Z" />
            <path class="cls-3"
                d="M240,22.59a6.3,6.3,0,0,0-8.23,4.09,6.73,6.73,0,0,0,3.9,8.32,6.41,6.41,0,0,0,8.13-3.83A6.59,6.59,0,0,0,240,22.59Z" />
            <path class="cls-3"
                d="M260.92,39.57a6.49,6.49,0,0,0,.5-5,6.73,6.73,0,0,0-3.3-3.91,5.93,5.93,0,0,0-5-.37,6.34,6.34,0,0,0-3.62,3.43,7,7,0,0,0-.2,5,6.25,6.25,0,0,0,1.21,2.11,5.92,5.92,0,0,0,6.66,1.93A6.67,6.67,0,0,0,260.92,39.57Z" />
            <path class="cls-3"
                d="M268.17,51.79a6.33,6.33,0,0,0,4.66,1A6.58,6.58,0,0,0,278,45.11a6.47,6.47,0,0,0-2.81-4.32,6.19,6.19,0,0,0-8.92,2A6.84,6.84,0,0,0,268.17,51.79Z" />
            <path class="cls-3"
                d="M282.76,63a6.38,6.38,0,0,0,8.94-.7A6.6,6.6,0,0,0,291,53a6.2,6.2,0,0,0-9.11.9,6.82,6.82,0,0,0,.85,9.17Z" />
            <path class="cls-3"
                d="M298,77.43a5.93,5.93,0,0,0,2.31.59,6.48,6.48,0,0,0,6.78-6.17,7.16,7.16,0,0,0-.35-2.58A6.67,6.67,0,0,0,305.31,67a6.14,6.14,0,0,0-9.12-.24A6.88,6.88,0,0,0,296,76,6.44,6.44,0,0,0,298,77.43Z" />
            <path class="cls-3"
                d="M307.61,90.43a6.38,6.38,0,0,0,8.86,1.47,6.62,6.62,0,0,0,1.45-9.28A6.27,6.27,0,0,0,313.59,80a6,6,0,0,0-4.73,1.34,6.81,6.81,0,0,0-1.25,9.13Z" />
            <path class="cls-3"
                d="M316.93,101.32a6.52,6.52,0,0,0,.56,4.87,6.26,6.26,0,0,0,1.64,1.89,6.63,6.63,0,0,0,2.11,1.13,6.36,6.36,0,0,0,8-4.36,6.62,6.62,0,0,0,.24-2.59,7,7,0,0,0-.85-2.56,6.64,6.64,0,0,0-3.95-3.2,6.09,6.09,0,0,0-4.87.77A6.74,6.74,0,0,0,316.93,101.32Z" />
            <path class="cls-3"
                d="M325.54,123a6.39,6.39,0,0,0,8.25,3.59,6.6,6.6,0,0,0,3.55-8.67,6.29,6.29,0,0,0-8.51-3.48A6.73,6.73,0,0,0,325.54,123Z" />
            <path class="cls-3"
                d="M335.81,132.65a6.59,6.59,0,0,0-3.72,3.23,6.73,6.73,0,0,0-.57,4.88,6.54,6.54,0,0,0,3,3.83,6.37,6.37,0,0,0,4.81.74,6.3,6.3,0,0,0,4-3,6.72,6.72,0,0,0,.57-5.14,6.59,6.59,0,0,0-3.11-4.08A6.16,6.16,0,0,0,335.81,132.65Z" />
            <path class="cls-3"
                d="M340.66,151.55a6.65,6.65,0,0,0-5.2,7.52A6.41,6.41,0,1,0,348.1,157,6.36,6.36,0,0,0,340.66,151.55Z" />
            <path class="cls-3"
                d="M343.23,170.92a6.54,6.54,0,0,0-4.37,2.24,7,7,0,0,0-1.63,4.6,6.6,6.6,0,0,0,6.56,6.33,6.42,6.42,0,0,0,6.23-6.85,6.51,6.51,0,0,0-2.13-4.71A6.12,6.12,0,0,0,343.23,170.92Z" />
            <polygon class="cls-4"
                points="235.59 123.48 210.13 117.74 190.96 135.47 188.55 109.48 165.76 96.74 189.74 86.4 194.82 60.8 212.05 80.41 237.97 77.32 224.65 99.77 235.59 123.48" />
            <polygon class="cls-5"
                points="276.14 118.29 260.73 114.82 249.13 125.55 247.67 109.82 233.88 102.11 248.39 95.85 251.46 80.36 261.89 92.22 277.58 90.36 269.52 103.94 276.14 118.29" />
            <polygon class="cls-6"
                points="152.99 265.95 136.08 262.14 123.36 273.91 121.76 256.66 106.63 248.2 122.55 241.34 125.92 224.34 137.36 237.36 154.57 235.31 145.72 250.22 152.99 265.95" />
            <polygon class="cls-7"
                points="209.03 274.68 189.67 270.32 175.1 283.8 173.26 264.04 155.94 254.35 174.17 246.5 178.03 227.03 191.13 241.94 210.84 239.6 200.71 256.66 209.03 274.68" />
            <polygon class="cls-8"
                points="207.94 302.13 200.76 300.51 195.36 305.51 194.68 298.18 188.25 294.59 195.01 291.67 196.44 284.45 201.3 289.98 208.61 289.11 204.86 295.44 207.94 302.13" />
            <polygon class="cls-9"
                points="231.94 261.13 224.76 259.51 219.36 264.51 218.68 257.18 212.25 253.59 219.01 250.67 220.44 243.45 225.3 248.98 232.61 248.11 228.86 254.44 231.94 261.13" />
            <path class="cls-3"
                d="M68.39,209.39l-.07-15.8-4.89,12.68H60.08l-4.89-12.14v15.26H48.27V174.72h6.24l7.34,18.47L69,174.72h6.25l.06,34.67Z" />
            <path class="cls-3"
                d="M84.26,207.85a15.25,15.25,0,0,1-4.54-6.46,27.39,27.39,0,0,1,0-18.67,15.35,15.35,0,0,1,4.54-6.47,10.36,10.36,0,0,1,13.07,0,15.44,15.44,0,0,1,4.54,6.47,27.39,27.39,0,0,1,0,18.67,15.34,15.34,0,0,1-4.54,6.46,10.33,10.33,0,0,1-13.07,0Zm9.09-8.19a7.23,7.23,0,0,0,1.82-3,15.8,15.8,0,0,0,0-9.17,7.23,7.23,0,0,0-1.82-3,3.62,3.62,0,0,0-5.12,0,7.33,7.33,0,0,0-1.81,3,15.8,15.8,0,0,0,0,9.17,7.33,7.33,0,0,0,1.81,3,3.62,3.62,0,0,0,5.12,0Z" />
            <path class="cls-3"
                d="M109.22,209.21a12.22,12.22,0,0,1-4.36-2.6l2.45-8.51a13.55,13.55,0,0,0,3.6,2.3,9.59,9.59,0,0,0,3.84.87,4.1,4.1,0,0,0,2.25-.47,1.63,1.63,0,0,0,.68-1.42,1.79,1.79,0,0,0-.89-1.63,14.38,14.38,0,0,0-2.91-1.19,24.09,24.09,0,0,1-4.35-1.81,8.22,8.22,0,0,1-3-3.17,11.92,11.92,0,0,1-1.28-6,14.36,14.36,0,0,1,1.19-5.94,9.56,9.56,0,0,1,3.55-4.21,10.39,10.39,0,0,1,5.75-1.53,14,14,0,0,1,4.56.76,11.93,11.93,0,0,1,3.94,2.26l-2.29,8.47a10.41,10.41,0,0,0-6.27-2.58c-2,0-2.93.73-2.93,2.18a1.71,1.71,0,0,0,.87,1.56,13,13,0,0,0,2.86,1.11,22.16,22.16,0,0,1,4.35,1.71,8.38,8.38,0,0,1,3.07,3.15,11.52,11.52,0,0,1,1.31,5.94,14.17,14.17,0,0,1-1.2,5.92,9.61,9.61,0,0,1-3.55,4.21,10.23,10.23,0,0,1-5.75,1.56A15.71,15.71,0,0,1,109.22,209.21Z" />
            <path class="cls-3" d="M132,183.78h-6.6v-9.06h20.8v9.06h-6.6v25.61H132Z" />
            <path class="cls-3"
                d="M174.11,176.3a10.12,10.12,0,0,1,3.57,4.56,19.72,19.72,0,0,1,0,13.87,10,10,0,0,1-3.57,4.55,9.39,9.39,0,0,1-5.44,1.59h-3.25v8.52h-7.6V174.72h10.85A9.46,9.46,0,0,1,174.11,176.3Zm-3.61,14.49a6.14,6.14,0,0,0,0-6,2.66,2.66,0,0,0-2.31-1.07h-2.77v8.13h2.77A2.66,2.66,0,0,0,170.5,190.79Z" />
            <path class="cls-3"
                d="M187,207.85a15.25,15.25,0,0,1-4.54-6.46,27.39,27.39,0,0,1,0-18.67,15.35,15.35,0,0,1,4.54-6.47,10.36,10.36,0,0,1,13.07,0,15.44,15.44,0,0,1,4.54,6.47,27.39,27.39,0,0,1,0,18.67,15.34,15.34,0,0,1-4.54,6.46,10.33,10.33,0,0,1-13.07,0Zm9.09-8.19a7.34,7.34,0,0,0,1.82-3,15.8,15.8,0,0,0,0-9.17,7.34,7.34,0,0,0-1.82-3,3.62,3.62,0,0,0-5.12,0,7.33,7.33,0,0,0-1.81,3,15.8,15.8,0,0,0,0,9.17,7.33,7.33,0,0,0,1.81,3,3.62,3.62,0,0,0,5.12,0Z" />
            <path class="cls-3"
                d="M225.33,176.3a10.19,10.19,0,0,1,3.57,4.56,19.72,19.72,0,0,1,0,13.87,10.11,10.11,0,0,1-3.57,4.55,9.39,9.39,0,0,1-5.44,1.59h-3.25v8.52H209V174.72h10.85A9.46,9.46,0,0,1,225.33,176.3Zm-3.61,14.49a6.21,6.21,0,0,0,0-6,2.68,2.68,0,0,0-2.32-1.07h-2.76v8.13h2.76A2.68,2.68,0,0,0,221.72,190.79Z" />
            <path class="cls-3"
                d="M235,205.87q-2.9-4.31-2.9-12.08V174.72h7.6v18.72a13,13,0,0,0,.88,5.55,2.76,2.76,0,0,0,5.12,0,12.93,12.93,0,0,0,.89-5.55V174.72h7.47v19.07q0,7.77-2.9,12.08a9.73,9.73,0,0,1-16.16,0Z" />
            <path class="cls-3" d="M257.55,174.72h7.6v25.6h10.17v9.07H257.55Z" />
            <path class="cls-3" d="M296.15,200.57v8.82H277.42V174.72h18.31v8.81H284.88v4.07h9.53V196h-9.53v4.55Z" />
            <path class="cls-3"
                d="M308.74,200.67h-2.06v8.72h-7.6V174.72h10.85a9.44,9.44,0,0,1,5.44,1.58,10.06,10.06,0,0,1,3.57,4.56,17.64,17.64,0,0,1,1.26,6.93,17.82,17.82,0,0,1-1.09,6.49,10.36,10.36,0,0,1-3.16,4.41l4.73,10.7h-8.11Zm3-15.87a2.69,2.69,0,0,0-2.32-1.07h-2.77v8.13h2.77a2.69,2.69,0,0,0,2.32-1.07,6.21,6.21,0,0,0,0-6Z" />
        </g>
    </g>
</svg>